<svg class="block h-48 w-48" viewBox="0 0 184 184" xmlns="http://www.w3.org/2000/svg"><path d="M182 184a2 2 0 1 1 0-4 2 2 0 0 1 0 4zm-20-20a2 2 0 1 1 0-4 2 2 0 0 1 0 4zm0 20a2 2 0 1 1 0-4 2 2 0 0 1 0 4zm-20 0a2 2 0 1 1 0-4 2 2 0 0 1 0 4zm0-20a2 2 0 1 1 0-4 2 2 0 0 1 0 4zm0-20a2 2 0 1 1 0-4 2 2 0 0 1 0 4zm-20 0a2 2 0 1 1 0-4 2 2 0 0 1 0 4zm0 20a2 2 0 1 1 0-4 2 2 0 0 1 0 4zm0 20a2 2 0 1 1 0-4 2 2 0 0 1 0 4zm0-60a2 2 0 1 1 0-4 2 2 0 0 1 0 4zm-20 20a2 2 0 1 1 0-4 2 2 0 0 1 0 4zm0 20a2 2 0 1 1 0-4 2 2 0 0 1 0 4zm0 20a2 2 0 1 1 0-4 2 2 0 0 1 0 4zm0-60a2 2 0 1 1 0-4 2 2 0 0 1 0 4zm0-20a2 2 0 1 1 0-4 2 2 0 0 1 0 4zm-20 40a2 2 0 1 1 0-4 2 2 0 0 1 0 4zm0 20a2 2 0 1 1 0-4 2 2 0 0 1 0 4zm0 20a2 2 0 1 1 0-4 2 2 0 0 1 0 4zm0-60a2 2 0 1 1 0-4 2 2 0 0 1 0 4zm0-20a2 2 0 1 1 0-4 2 2 0 0 1 0 4zm0-20a2 2 0 1 1 0-4 2 2 0 0 1 0 4zm-20 60a2 2 0 1 1 0-4 2 2 0 0 1 0 4zm0 20a2 2 0 1 1 0-4 2 2 0 0 1 0 4zm0 20a2 2 0 1 1 0-4 2 2 0 0 1 0 4zm0-60a2 2 0 1 1 0-4 2 2 0 0 1 0 4zm0-20a2 2 0 1 1 0-4 2 2 0 0 1 0 4zm0-20a2 2 0 1 1 0-4 2 2 0 0 1 0 4zm0-20a2 2 0 1 1 0-4 2 2 0 0 1 0 4zm-20 80a2 2 0 1 1 0-4 2 2 0 0 1 0 4zm0 20a2 2 0 1 1 0-4 2 2 0 0 1 0 4zm0 20a2 2 0 1 1 0-4 2 2 0 0 1 0 4zm0-60a2 2 0 1 1 0-4 2 2 0 0 1 0 4zm0-20a2 2 0 1 1 0-4 2 2 0 0 1 0 4zm0-20a2 2 0 1 1 0-4 2 2 0 0 1 0 4zm0-20a2 2 0 1 1 0-4 2 2 0 0 1 0 4zm0-20a2 2 0 1 1 0-4 2 2 0 0 1 0 4zM22 144a2 2 0 1 1 0-4 2 2 0 0 1 0 4zm0 20a2 2 0 1 1 0-4 2 2 0 0 1 0 4zm0 20a2 2 0 1 1 0-4 2 2 0 0 1 0 4zm0-60a2 2 0 1 1 0-4 2 2 0 0 1 0 4zm0-20a2 2 0 1 1 0-4 2 2 0 0 1 0 4zm0-20a2 2 0 1 1 0-4 2 2 0 0 1 0 4zm0-20a2 2 0 1 1 0-4 2 2 0 0 1 0 4zm0-20a2 2 0 1 1 0-4 2 2 0 0 1 0 4zm0-20a2 2 0 1 1 0-4 2 2 0 0 1 0 4zM2 144a2 2 0 1 1 0-4 2 2 0 0 1 0 4zm0 20a2 2 0 1 1 0-4 2 2 0 0 1 0 4zm0 20a2 2 0 1 1 0-4 2 2 0 0 1 0 4zm0-60a2 2 0 1 1 0-4 2 2 0 0 1 0 4zm0-20a2 2 0 1 1 0-4 2 2 0 0 1 0 4zm0-20a2 2 0 1 1 0-4 2 2 0 0 1 0 4zm0-20a2 2 0 1 1 0-4 2 2 0 0 1 0 4zm0-20a2 2 0 1 1 0-4 2 2 0 0 1 0 4zm0-20a2 2 0 1 1 0-4 2 2 0 0 1 0 4zM2 4a2 2 0 1 1 0-4 2 2 0 0 1 0 4z" fill="#64d5ca" fill-rule="evenodd" opacity="0.5"></path></svg>